<?xml version="1.0" encoding="iso-8859-1"?>
<!-- Uploaded to: SVG Repo, www.svgrepo.com, Generator: SVG Repo Mixer Tools -->
<!DOCTYPE svg PUBLIC "-//W3C//DTD SVG 1.1//EN" "http://www.w3.org/Graphics/SVG/1.1/DTD/svg11.dtd">
<svg fill="#000000" version="1.1" id="Capa_1" xmlns="http://www.w3.org/2000/svg" xmlns:xlink="http://www.w3.org/1999/xlink" 
	 width="800px" height="800px" viewBox="0 0 41.041 41.041"
	 xml:space="preserve">
<g>
	<path d="M21.792,2.896v7.25H0v21.667h14.001v2.333h-3.668v4h14.666v-4h-3.668v-2.333h14.001v-3.917h5.709v-25H21.792z M19,27.312
		H4.5v-2H19V27.312z M19,22.312H4.5v-2H19V22.312z M19,17.312H4.5v-2H19V17.312z M32.333,27.37c-0.562,0-1.017-0.455-1.017-1.017
		s0.455-1.017,1.017-1.017s1.017,0.455,1.017,1.017S32.893,27.37,32.333,27.37z M38.042,24.896h-13.25v-19h13.25V24.896z"/>
</g>
</svg>