<svg version="1.1" id="Layer_1" xmlns="http://www.w3.org/2000/svg" xmlns:xlink="http://www.w3.org/1999/xlink" x="0px" y="0px"
	 width="100%" viewBox="0 0 176 224" enable-background="new 0 0 176 224" xml:space="preserve">
<path fill="#000000" opacity="1.000000" stroke="none" 
	d="
M1.000000,88.000000 
	C1.000000,58.666672 1.000000,29.833347 1.000000,1.000015 
	C59.666645,1.000010 118.333290,1.000010 176.999954,1.000005 
	C176.999969,75.666626 176.999969,150.333252 176.999985,224.999908 
	C118.333389,224.999939 59.666771,224.999939 1.000079,224.999969 
	C1.000000,179.500000 1.000000,134.000000 1.000000,88.000000 
M91.493347,147.014893 
	C83.032867,142.014008 74.466675,137.182388 66.133209,131.978119 
	C46.909962,119.973129 44.462742,93.977333 60.944248,78.328400 
	C62.149342,77.184181 63.368500,76.047157 64.481544,74.816711 
	C65.073669,74.162148 65.146294,73.270103 64.567642,72.518120 
	C64.016998,71.802544 63.140038,71.427719 62.353683,71.798042 
	C61.170700,72.355148 60.031403,73.078049 59.014526,73.904037 
	C38.383289,90.662376 40.870342,121.772606 64.081497,136.245941 
	C71.852959,141.091843 79.874489,145.535126 87.742363,150.228424 
	C95.838394,155.057785 96.437912,162.147919 89.274551,168.432724 
	C84.265793,172.827194 79.195107,177.152496 74.098366,181.444916 
	C66.682297,187.690659 63.668369,195.897110 63.492630,205.307617 
	C63.408005,209.839294 65.148422,213.547852 69.712753,215.117630 
	C74.462074,216.751022 77.591835,213.923935 79.518280,210.260330 
	C83.576431,202.542725 90.115593,198.218674 97.827011,194.858215 
	C112.485855,188.470184 127.137512,182.032089 141.524414,175.062134 
	C159.332855,166.434509 161.844055,140.979553 146.223129,130.181274 
	C144.806320,129.201874 143.098663,127.343636 141.430939,129.249268 
	C139.649643,131.284698 141.926437,132.475189 143.170120,133.665100 
	C156.707077,146.616714 153.754547,164.317902 136.688370,172.152603 
	C125.486862,177.294968 114.227417,182.311081 103.022842,187.446823 
	C92.144363,192.433075 80.573318,196.512634 75.068642,208.646942 
	C74.428131,210.058853 72.952354,210.837418 71.279633,210.454788 
	C69.337837,210.010574 68.717850,208.481262 68.628853,206.691132 
	C68.220848,198.484177 70.181183,191.112854 76.560509,185.483627 
	C82.057037,180.633392 87.784241,176.042572 93.235901,171.143890 
	C101.534630,163.686951 101.012245,154.219284 91.493347,147.014893 
M122.628235,65.750870 
	C121.714279,71.890137 118.289055,76.425087 113.499367,80.106750 
	C109.544434,83.146751 105.352089,85.940598 101.734344,89.342674 
	C95.450882,95.251556 95.828629,104.841537 102.201248,110.055733 
	C103.629906,111.224686 105.329300,112.658081 106.976379,110.800980 
	C108.518921,109.061745 106.690147,107.873962 105.602814,106.653625 
	C100.663139,101.109718 101.186867,95.489555 107.133560,90.840508 
	C110.410301,88.278809 113.888878,85.969513 117.104385,83.336304 
	C128.226257,74.228485 131.749161,59.757542 124.723747,48.478931 
	C118.667114,38.755619 111.576065,29.670040 104.811707,20.397808 
	C102.500984,17.230381 99.037209,16.354134 95.419792,17.573082 
	C91.913109,18.754717 90.262749,21.587139 90.245132,25.310778 
	C90.223877,29.804300 90.192436,34.297802 90.183289,38.791348 
	C90.165009,47.768757 86.706413,54.905025 79.042267,59.849823 
	C76.947029,61.201637 74.910561,62.653622 72.923309,64.160133 
	C71.834175,64.985794 70.884933,66.114853 71.742149,67.571762 
	C72.618156,69.060616 73.935738,68.607925 75.251984,68.073952 
	C86.924103,63.338863 94.699493,51.889217 94.819679,39.183388 
	C94.854309,35.522030 94.787224,31.858692 94.883186,28.199314 
	C94.943138,25.913376 94.593216,23.144138 97.333458,22.193279 
	C100.152550,21.215059 101.506737,23.747578 102.830833,25.549082 
	C108.250198,32.922428 113.691681,40.287483 118.836952,47.851540 
	C122.296913,52.938007 123.923996,58.665234 122.628235,65.750870 
M139.261841,117.179863 
	C135.947433,113.605232 131.773254,111.039261 128.888428,106.818619 
	C126.557190,103.407906 121.038498,104.605232 118.827950,108.534096 
	C117.467278,110.952438 115.867928,112.622986 113.409500,114.011780 
	C107.730499,117.219917 107.794380,123.416893 113.456757,126.637337 
	C115.724907,127.927338 117.294060,129.435959 118.575104,131.749313 
	C121.559914,137.139374 127.817230,137.090805 130.854004,131.649368 
	C132.148270,129.330200 133.772934,127.830711 136.028885,126.566681 
	C139.408630,124.673012 141.110733,121.820572 139.261841,117.179863 
M53.225292,58.644127 
	C57.387653,59.720184 60.470333,58.388412 62.196522,54.415543 
	C63.141350,52.241013 64.951096,51.281734 66.867401,50.181492 
	C72.229225,47.103001 72.434074,40.828941 67.157280,37.760250 
	C64.737831,36.353237 63.094818,34.677498 61.682426,32.277988 
	C58.646481,27.120214 52.487522,27.080555 49.631882,32.247486 
	C48.179356,34.875652 46.384624,36.579910 43.810795,38.026600 
	C39.790504,40.286320 38.631245,45.683445 42.073250,48.062073 
	C46.263309,50.957642 48.811172,55.183353 53.225292,58.644127 
M42.481087,134.833344 
	C39.952381,135.538925 39.093250,138.253006 36.866745,139.453201 
	C35.552582,140.161621 35.734497,142.384979 37.125710,142.682114 
	C39.807934,143.254990 40.032219,148.546768 43.789871,146.237686 
	C48.208050,143.522705 48.400803,141.033173 44.975765,137.183014 
	C44.331059,136.458282 43.711842,135.710892 42.481087,134.833344 
M128.132126,35.972538 
	C129.266708,37.156452 130.331497,38.418388 131.549881,39.508652 
	C134.422272,42.078999 135.440292,38.486671 137.266098,37.654621 
	C138.645035,37.026218 139.935547,36.091663 139.113708,34.198055 
	C137.386307,30.217897 132.903900,29.494785 129.971390,32.696835 
	C129.211807,33.526222 128.012070,34.023045 128.132126,35.972538 
z"/>
<path fill="#000000" opacity="1.000000" stroke="none" 
	d="
M115.394745,121.889832 
	C114.555534,120.734703 114.277603,119.376694 115.213615,118.979698 
	C119.537399,117.145798 121.732346,113.194901 124.683975,108.866158 
	C127.529778,113.303772 130.230286,116.712914 134.185806,118.996490 
	C135.921600,119.998589 134.830429,121.746986 133.235199,122.416023 
	C130.313126,123.641510 128.381409,125.650848 126.982620,128.505920 
	C125.625374,131.276215 123.673790,131.329361 122.415962,128.383011 
	C121.060921,125.208969 118.598854,123.454704 115.394745,121.889832 
z"/>
<path fill="#000000" opacity="1.000000" stroke="none" 
	d="
M47.720963,46.392952 
	C44.715092,44.598057 44.728825,42.885437 47.545040,41.560276 
	C50.262360,40.281651 52.033470,38.356693 53.318054,35.656105 
	C54.873646,32.385780 56.879822,32.913437 58.210361,35.818840 
	C59.384842,38.383472 61.043407,40.203045 63.525337,41.506641 
	C66.299828,42.963894 66.292946,44.841492 63.468922,46.146263 
	C60.888966,47.338268 59.193096,48.986359 58.101151,51.660828 
	C56.738083,54.999352 54.752132,54.555325 53.237804,51.700275 
	C52.013706,49.392426 50.438141,47.592373 47.720963,46.392952 
z"/>
</svg>